<svg width="24" height="24" viewBox="0 0 24 24" fill="none" xmlns="http://www.w3.org/2000/svg">
<g clip-path="url(#clip0_2607_494)">
<path d="M10.7919 18.048L8.52792 20.304C8.07635 20.7535 7.4651 21.0059 6.82792 21.0059C6.19074 21.0059 5.57949 20.7535 5.12792 20.304L2.86392 18.04C1.93592 17.112 1.93592 15.584 2.86392 14.648L5.12792 12.384L10.7919 18.048ZM21.5359 11.816L11.3519 1.64C11.2657 1.54938 11.1588 1.48096 11.0404 1.44056C10.922 1.40016 10.7956 1.38899 10.6719 1.408C10.4159 1.448 10.1999 1.6 10.0799 1.824L5.49592 10.488L12.7039 17.696L21.3439 13.088C21.5679 12.976 21.7199 12.752 21.7599 12.504C21.7999 12.248 21.7119 12 21.5359 11.816ZM3.99992 21.432L1.73592 19.168C1.41592 18.848 1.16792 18.496 0.98392 18.112C0.58392 19.232 0.83992 20.536 1.73592 21.432C2.16095 21.862 2.6998 22.1619 3.28926 22.2966C3.87872 22.4312 4.49435 22.3949 5.06392 22.192C4.66655 22.0045 4.30615 21.7471 3.99992 21.432ZM13.3359 20.584L11.9279 19.176L9.65592 21.44C9.46392 21.632 9.25592 21.8 9.03192 21.944L10.5039 23.416C10.8799 23.792 11.3839 24 11.9199 24C12.4559 24 12.9599 23.792 13.3359 23.416C14.1119 22.632 14.1119 21.368 13.3359 20.584ZM15.9999 2.4V0.8C15.9999 0.587827 15.9156 0.384344 15.7656 0.234315C15.6156 0.0842854 15.4121 0 15.1999 0C14.9877 0 14.7843 0.0842854 14.6342 0.234315C14.4842 0.384344 14.3999 0.587827 14.3999 0.8V2.4C14.3999 2.61217 14.4842 2.81566 14.6342 2.96569C14.7843 3.11571 14.9877 3.2 15.1999 3.2C15.4121 3.2 15.6156 3.11571 15.7656 2.96569C15.9156 2.81566 15.9999 2.61217 15.9999 2.4ZM23.1999 8C23.1999 7.78783 23.1156 7.58434 22.9656 7.43431C22.8156 7.28429 22.6121 7.2 22.3999 7.2H20.7999C20.5877 7.2 20.3843 7.28429 20.2342 7.43431C20.0842 7.58434 19.9999 7.78783 19.9999 8C19.9999 8.21217 20.0842 8.41566 20.2342 8.56569C20.3843 8.71571 20.5877 8.8 20.7999 8.8H22.3999C22.6121 8.8 22.8156 8.71571 22.9656 8.56569C23.1156 8.41566 23.1999 8.21217 23.1999 8ZM18.9655 5.3656L20.5655 3.7656C20.6419 3.6918 20.7029 3.60353 20.7448 3.50592C20.7867 3.40832 20.8088 3.30334 20.8097 3.19712C20.8106 3.0909 20.7904 2.98555 20.7502 2.88724C20.71 2.78892 20.6505 2.6996 20.5754 2.62448C20.5003 2.54937 20.411 2.48997 20.3127 2.44974C20.2144 2.40952 20.109 2.38928 20.0028 2.3902C19.8966 2.39112 19.7916 2.41319 19.694 2.45512C19.5964 2.49705 19.5081 2.55799 19.4343 2.6344L17.8343 4.2344C17.7579 4.3082 17.697 4.39647 17.655 4.49408C17.6131 4.59168 17.591 4.69666 17.5901 4.80288C17.5892 4.9091 17.6094 5.01445 17.6497 5.11276C17.6899 5.21108 17.7493 5.3004 17.8244 5.37552C17.8995 5.45063 17.9888 5.51003 18.0872 5.55026C18.1855 5.59048 18.2908 5.61072 18.397 5.6098C18.5033 5.60888 18.6082 5.58681 18.7058 5.54488C18.8034 5.50295 18.8917 5.44201 18.9655 5.3656Z" fill="url(#paint0_linear_2607_494)"/>
</g>
<defs>
<linearGradient id="paint0_linear_2607_494" x1="-0.0511062" y1="24.8557" x2="25.8431" y2="22.907" gradientUnits="userSpaceOnUse">
<stop stop-color="#5F9FFF"/>
<stop offset="1" stop-color="#5D34EC"/>
</linearGradient>
<clipPath id="clip0_2607_494">
<rect width="24" height="24" fill="white"/>
</clipPath>
</defs>
</svg>
