<svg width="24" height="24" viewBox="0 0 24 24" fill="none" xmlns="http://www.w3.org/2000/svg">
<path d="M18.7509 20.5C18.8494 20.4934 18.9482 20.5063 19.0417 20.5379C19.1352 20.5696 19.2216 20.6193 19.2959 20.6843C19.3701 20.7493 19.4309 20.8283 19.4747 20.9168C19.5184 21.0053 19.5443 21.1015 19.5509 21.2C19.5575 21.2985 19.5446 21.3973 19.5129 21.4908C19.4813 21.5843 19.4316 21.6707 19.3666 21.745C19.3016 21.8193 19.2226 21.88 19.1341 21.9238C19.0456 21.9675 18.9494 21.9934 18.8509 22H5.25089C5.05197 22.0133 4.85594 21.947 4.70591 21.8157C4.55588 21.6844 4.46415 21.4989 4.45088 21.3C4.43762 21.1011 4.50392 20.905 4.6352 20.755C4.76648 20.605 4.95197 20.5133 5.15089 20.5H18.7509ZM11.8809 1.99999H12.0009C12.2466 1.99822 12.4843 2.08694 12.6687 2.24925C12.8532 2.41156 12.9714 2.63608 13.0009 2.87999V15.59L16.3009 12.29C16.4729 12.1209 16.7002 12.0197 16.9409 12.005C17.1817 11.9903 17.4196 12.0631 17.6109 12.21L17.7109 12.29C17.8826 12.4626 17.9855 12.6919 18.0002 12.9349C18.015 13.1779 17.9405 13.4179 17.7909 13.61L17.7109 13.71L12.7109 18.71C12.5383 18.8817 12.309 18.9846 12.066 18.9993C11.823 19.0141 11.5829 18.9396 11.3909 18.79L11.2909 18.7L6.29089 13.7C6.12174 13.518 6.0264 13.2796 6.02343 13.0311C6.02047 12.7827 6.11009 12.5421 6.27484 12.3561C6.4396 12.1701 6.66768 12.0521 6.91466 12.0251C7.16164 11.9981 7.40984 12.064 7.61089 12.21L7.71089 12.29L11.0009 15.6V2.97999C11.0016 2.73603 11.0914 2.50074 11.2535 2.3184C11.4155 2.13606 11.6387 2.01926 11.8809 1.98999V1.99999Z" fill="#0B8AE7"/>
</svg>
