<svg width="24" height="24" viewBox="0 0 24 24" fill="none" xmlns="http://www.w3.org/2000/svg">
<path d="M18.5 2.33004L21.67 5.51004C22.55 6.39004 22.55 7.81004 21.67 8.69004L19.09 11.28C19.6209 11.3612 20.1053 11.6296 20.4556 12.0368C20.8059 12.4439 20.999 12.9629 21 13.5V18.75C21 20 20 21 18.75 21H5.25C4.01 21 3 20 3 18.75V5.25004C3 4.01004 4 3.00004 5.25 3.00004H10.5C11.63 3.00004 12.56 3.83004 12.73 4.92004L15.31 2.33004C16.19 1.45004 17.61 1.45004 18.49 2.33004H18.5ZM4.5 18.75C4.5 19.16 4.84 19.5 5.25 19.5H11.25V12.75H4.5V18.75ZM12.75 19.5H18.75C19.16 19.5 19.5 19.16 19.5 18.75V13.5C19.5 13.3011 19.421 13.1104 19.2803 12.9697C19.1397 12.8291 18.9489 12.75 18.75 12.75H12.75V19.5ZM10.5 4.50004H5.25C5.05109 4.50004 4.86032 4.57906 4.71967 4.71971C4.57902 4.86037 4.5 5.05113 4.5 5.25004V11.25H11.25V5.25004C11.25 5.05113 11.171 4.86037 11.0303 4.71971C10.8897 4.57906 10.6989 4.50004 10.5 4.50004ZM12.75 9.31004V11.25H14.69L12.75 9.31004ZM16.37 3.39004L13.2 6.57004C12.9 6.87004 12.9 7.34004 13.2 7.63004L16.38 10.81C16.68 11.11 17.15 11.11 17.44 10.81L20.62 7.63004C20.92 7.33004 20.92 6.86004 20.62 6.57004L17.44 3.39004C17.2994 3.24959 17.1088 3.1707 16.91 3.1707C16.7112 3.1707 16.5206 3.24959 16.38 3.39004H16.37Z" fill="white"/>
</svg>
