<svg width="24" height="24" viewBox="0 0 24 24" fill="none" xmlns="http://www.w3.org/2000/svg">
<g clip-path="url(#clip0_2607_58)">
<path d="M10.2227 2.5188C7.28217 -0.421813 2.21114 0.0359679 1.99664 0.0569211C1.83325 0.0728676 1.68046 0.145047 1.56438 0.261131C1.4483 0.377214 1.37612 0.529999 1.36017 0.69339C1.33922 0.907843 0.881485 5.97897 3.822 8.91948C6.0285 11.126 9.43439 11.4191 11.088 11.419C11.1592 11.419 11.2269 11.4185 11.2913 11.4175V12.8047C11.5266 12.7846 11.763 12.7735 12 12.7735C12.237 12.7735 12.4733 12.7846 12.7087 12.8047V10.6761C12.7087 10.6761 12.888 5.18411 10.2227 2.5188ZM18.1888 17.461C18.0847 17.461 17.9792 17.464 17.873 17.4699C16.6205 15.4357 14.412 14.1908 12 14.1908C9.58795 14.1908 7.37953 15.4356 6.12689 17.4699C6.02174 17.4639 5.91645 17.461 5.81114 17.461C2.60686 17.461 0 20.0679 0 23.2721C0 23.6635 0.317297 23.9808 0.708656 23.9808H23.2913C23.6827 23.9808 24 23.6635 24 23.2721C24 20.0679 21.3931 17.461 18.1888 17.461ZM20.108 3.2485C20.092 3.08511 20.0198 2.93232 19.9038 2.81624C19.7877 2.70016 19.6349 2.62798 19.4715 2.61203C19.3088 2.59614 15.4616 2.24898 13.2187 4.492C13.2057 4.50494 13.1933 4.51816 13.1805 4.53128C13.5427 5.41619 13.8073 6.39231 13.9657 7.44287C14.2402 9.2642 14.1108 10.7224 14.0951 10.8827C14.0802 11.0353 14.0488 11.1859 14.0013 11.3317C15.3187 11.1735 17.0098 10.7195 18.228 9.50134C20.471 7.25837 20.1239 3.4112 20.108 3.2485Z" fill="url(#paint0_linear_2607_58)"/>
</g>
<defs>
<linearGradient id="paint0_linear_2607_58" x1="-0.9125" y1="24.8351" x2="26.8083" y2="22.5963" gradientUnits="userSpaceOnUse">
<stop stop-color="#5F9FFF"/>
<stop offset="1" stop-color="#5D34EC"/>
</linearGradient>
<clipPath id="clip0_2607_58">
<rect width="24" height="24" fill="white"/>
</clipPath>
</defs>
</svg>
