<svg width="32" height="32" viewBox="0 0 32 32" fill="none" xmlns="http://www.w3.org/2000/svg">
<path d="M8.33398 4.66666C8.06877 4.66666 7.81441 4.77201 7.62688 4.95955C7.43934 5.14709 7.33398 5.40144 7.33398 5.66666V27.3333H10.0007V23.6667C10.0007 22.7467 10.7473 22 11.6673 22H20.334C21.254 22 22.0007 22.7467 22.0007 23.6667V27.3333H24.6673V15.6667C24.6673 15.4014 24.562 15.1471 24.3744 14.9596C24.1869 14.772 23.9325 14.6667 23.6673 14.6667H21.0007C20.7354 14.6667 20.4811 14.5613 20.2935 14.3738C20.106 14.1862 20.0007 13.9319 20.0007 13.6667V5.66666C20.0007 5.40144 19.8953 5.14709 19.7078 4.95955C19.5202 4.77201 19.2659 4.66666 19.0007 4.66666H8.33398ZM12.0007 24V27.3333H15.0007V24H12.0007ZM17.0007 24V27.3333H20.0007V24H17.0007ZM25.6673 29.3333H6.33398C6.06877 29.3333 5.81441 29.228 5.62688 29.0404C5.43934 28.8529 5.33398 28.5985 5.33398 28.3333V5.66666C5.33398 4.01332 6.66732 2.66666 8.33398 2.66666H19.0007C20.654 2.66666 22.0007 3.99999 22.0007 5.66666V12.6667H23.6673C25.3207 12.6667 26.6673 14 26.6673 15.6667V28.3333C26.6673 28.88 26.214 29.3333 25.6673 29.3333ZM10.0007 8.66666C10.0007 8.31303 10.1411 7.9739 10.3912 7.72385C10.6412 7.4738 10.9804 7.33332 11.334 7.33332C11.6876 7.33332 12.0267 7.4738 12.2768 7.72385C12.5268 7.9739 12.6673 8.31303 12.6673 8.66666C12.6673 9.02028 12.5268 9.35942 12.2768 9.60947C12.0267 9.85951 11.6876 9.99999 11.334 9.99999C10.9804 9.99999 10.6412 9.85951 10.3912 9.60947C10.1411 9.35942 10.0007 9.02028 10.0007 8.66666ZM11.334 16.6667C10.9804 16.6667 10.6412 16.8071 10.3912 17.0572C10.1411 17.3072 10.0007 17.6464 10.0007 18C10.0007 18.3536 10.1411 18.6928 10.3912 18.9428C10.6412 19.1928 10.9804 19.3333 11.334 19.3333C11.6876 19.3333 12.0267 19.1928 12.2768 18.9428C12.5268 18.6928 12.6673 18.3536 12.6673 18C12.6673 17.6464 12.5268 17.3072 12.2768 17.0572C12.0267 16.8071 11.6876 16.6667 11.334 16.6667ZM11.334 12C10.9804 12 10.6412 12.1405 10.3912 12.3905C10.1411 12.6406 10.0007 12.9797 10.0007 13.3333C10.0007 13.6869 10.1411 14.0261 10.3912 14.2761C10.6412 14.5262 10.9804 14.6667 11.334 14.6667C11.6876 14.6667 12.0267 14.5262 12.2768 14.2761C12.5268 14.0261 12.6673 13.6869 12.6673 13.3333C12.6673 12.9797 12.5268 12.6406 12.2768 12.3905C12.0267 12.1405 11.6876 12 11.334 12ZM16.0007 7.33332C15.647 7.33332 15.3079 7.4738 15.0578 7.72385C14.8078 7.9739 14.6673 8.31303 14.6673 8.66666C14.6673 9.02028 14.8078 9.35942 15.0578 9.60947C15.3079 9.85951 15.647 9.99999 16.0007 9.99999C16.3543 9.99999 16.6934 9.85951 16.9435 9.60947C17.1935 9.35942 17.334 9.02028 17.334 8.66666C17.334 8.31303 17.1935 7.9739 16.9435 7.72385C16.6934 7.4738 16.3543 7.33332 16.0007 7.33332ZM16.0007 16.6667C15.647 16.6667 15.3079 16.8071 15.0578 17.0572C14.8078 17.3072 14.6673 17.6464 14.6673 18C14.6673 18.3536 14.8078 18.6928 15.0578 18.9428C15.3079 19.1928 15.647 19.3333 16.0007 19.3333C16.3543 19.3333 16.6934 19.1928 16.9435 18.9428C17.1935 18.6928 17.334 18.3536 17.334 18C17.334 17.6464 17.1935 17.3072 16.9435 17.0572C16.6934 16.8071 16.3543 16.6667 16.0007 16.6667ZM20.6673 16.6667C20.3137 16.6667 19.9746 16.8071 19.7245 17.0572C19.4745 17.3072 19.334 17.6464 19.334 18C19.334 18.3536 19.4745 18.6928 19.7245 18.9428C19.9746 19.1928 20.3137 19.3333 20.6673 19.3333C21.0209 19.3333 21.3601 19.1928 21.6101 18.9428C21.8602 18.6928 22.0007 18.3536 22.0007 18C22.0007 17.6464 21.8602 17.3072 21.6101 17.0572C21.3601 16.8071 21.0209 16.6667 20.6673 16.6667ZM16.0007 12C15.647 12 15.3079 12.1405 15.0578 12.3905C14.8078 12.6406 14.6673 12.9797 14.6673 13.3333C14.6673 13.6869 14.8078 14.0261 15.0578 14.2761C15.3079 14.5262 15.647 14.6667 16.0007 14.6667C16.3543 14.6667 16.6934 14.5262 16.9435 14.2761C17.1935 14.0261 17.334 13.6869 17.334 13.3333C17.334 12.9797 17.1935 12.6406 16.9435 12.3905C16.6934 12.1405 16.3543 12 16.0007 12Z" fill="white"/>
</svg>
