<svg width="24" height="24" viewBox="0 0 24 24" fill="none" xmlns="http://www.w3.org/2000/svg">
<path d="M7.75 9.25C8.01522 9.25 8.26957 9.14464 8.45711 8.95711C8.64464 8.76957 8.75 8.51522 8.75 8.25C8.75 7.98478 8.64464 7.73043 8.45711 7.54289C8.26957 7.35536 8.01522 7.25 7.75 7.25C7.48478 7.25 7.23043 7.35536 7.04289 7.54289C6.85536 7.73043 6.75 7.98478 6.75 8.25C6.75 8.51522 6.85536 8.76957 7.04289 8.95711C7.23043 9.14464 7.48478 9.25 7.75 9.25ZM11.25 7.5C11.0511 7.5 10.8603 7.57902 10.7197 7.71967C10.579 7.86032 10.5 8.05109 10.5 8.25C10.5 8.44891 10.579 8.63968 10.7197 8.78033C10.8603 8.92098 11.0511 9 11.25 9H16.75C16.9489 9 17.1397 8.92098 17.2803 8.78033C17.421 8.63968 17.5 8.44891 17.5 8.25C17.5 8.05109 17.421 7.86032 17.2803 7.71967C17.1397 7.57902 16.9489 7.5 16.75 7.5H11.25ZM11.25 11.25C11.0511 11.25 10.8603 11.329 10.7197 11.4697C10.579 11.6103 10.5 11.8011 10.5 12C10.5 12.1989 10.579 12.3897 10.7197 12.5303C10.8603 12.671 11.0511 12.75 11.25 12.75H16.75C16.9489 12.75 17.1397 12.671 17.2803 12.5303C17.421 12.3897 17.5 12.1989 17.5 12C17.5 11.8011 17.421 11.6103 17.2803 11.4697C17.1397 11.329 16.9489 11.25 16.75 11.25H11.25ZM10.5 15.75C10.5 15.34 10.84 15 11.25 15H16.75C16.9489 15 17.1397 15.079 17.2803 15.2197C17.421 15.3603 17.5 15.5511 17.5 15.75C17.5 15.9489 17.421 16.1397 17.2803 16.2803C17.1397 16.421 16.9489 16.5 16.75 16.5H11.25C11.0511 16.5 10.8603 16.421 10.7197 16.2803C10.579 16.1397 10.5 15.9489 10.5 15.75ZM8.75 12C8.75 12.2652 8.64464 12.5196 8.45711 12.7071C8.26957 12.8946 8.01522 13 7.75 13C7.48478 13 7.23043 12.8946 7.04289 12.7071C6.85536 12.5196 6.75 12.2652 6.75 12C6.75 11.7348 6.85536 11.4804 7.04289 11.2929C7.23043 11.1054 7.48478 11 7.75 11C8.01522 11 8.26957 11.1054 8.45711 11.2929C8.64464 11.4804 8.75 11.7348 8.75 12ZM7.75 16.75C8.01522 16.75 8.26957 16.6446 8.45711 16.4571C8.64464 16.2696 8.75 16.0152 8.75 15.75C8.75 15.4848 8.64464 15.2304 8.45711 15.0429C8.26957 14.8554 8.01522 14.75 7.75 14.75C7.48478 14.75 7.23043 14.8554 7.04289 15.0429C6.85536 15.2304 6.75 15.4848 6.75 15.75C6.75 16.0152 6.85536 16.2696 7.04289 16.4571C7.23043 16.6446 7.48478 16.75 7.75 16.75ZM6.25 3C5.38805 3 4.5614 3.34241 3.9519 3.9519C3.34241 4.5614 3 5.38805 3 6.25V17.75C3 19.55 4.46 21 6.25 21H17.75C19.55 21 21 19.54 21 17.75V6.25C21 4.45 19.54 3 17.75 3H6.25ZM4.5 6.25C4.5 5.28 5.28 4.5 6.25 4.5H17.75C18.72 4.5 19.5 5.28 19.5 6.25V17.75C19.5 18.72 18.72 19.5 17.75 19.5H6.25C5.28 19.5 4.5 18.72 4.5 17.75V6.25Z" fill="white"/>
</svg>
