<svg width="24" height="24" viewBox="0 0 24 24" fill="none" xmlns="http://www.w3.org/2000/svg">
<path d="M5.5 7C5.5 6.33696 5.76339 5.70107 6.23223 5.23223C6.70107 4.76339 7.33696 4.5 8 4.5C8.66304 4.5 9.29893 4.76339 9.76777 5.23223C10.2366 5.70107 10.5 6.33696 10.5 7C10.5 7.66304 10.2366 8.29893 9.76777 8.76777C9.29893 9.23661 8.66304 9.5 8 9.5C7.33696 9.5 6.70107 9.23661 6.23223 8.76777C5.76339 8.29893 5.5 7.66304 5.5 7ZM8 3C6.93913 3 5.92172 3.42143 5.17157 4.17157C4.42143 4.92172 4 5.93913 4 7C4 8.06087 4.42143 9.07828 5.17157 9.82843C5.92172 10.5786 6.93913 11 8 11C9.06087 11 10.0783 10.5786 10.8284 9.82843C11.5786 9.07828 12 8.06087 12 7C12 5.93913 11.5786 4.92172 10.8284 4.17157C10.0783 3.42143 9.06087 3 8 3ZM15.5 8C15.5 7.60218 15.658 7.22064 15.9393 6.93934C16.2206 6.65804 16.6022 6.5 17 6.5C17.3978 6.5 17.7794 6.65804 18.0607 6.93934C18.342 7.22064 18.5 7.60218 18.5 8C18.5 8.39782 18.342 8.77936 18.0607 9.06066C17.7794 9.34196 17.3978 9.5 17 9.5C16.6022 9.5 16.2206 9.34196 15.9393 9.06066C15.658 8.77936 15.5 8.39782 15.5 8ZM17 5C16.2044 5 15.4413 5.31607 14.8787 5.87868C14.3161 6.44129 14 7.20435 14 8C14 8.79565 14.3161 9.55871 14.8787 10.1213C15.4413 10.6839 16.2044 11 17 11C17.7956 11 18.5587 10.6839 19.1213 10.1213C19.6839 9.55871 20 8.79565 20 8C20 7.20435 19.6839 6.44129 19.1213 5.87868C18.5587 5.31607 17.7956 5 17 5ZM4.25 13C3.01 13 2 14 2 15.25V15.53C2.0001 15.5968 2.00344 15.6635 2.01 15.73C2.03 15.87 2.05 16.05 2.11 16.26C2.2 16.68 2.4 17.24 2.79 17.81C3.61 18.97 5.17 20 8 20C9.37 20 10.44 19.76 11.28 19.38C11.1274 18.8762 11.0367 18.3557 11.01 17.83C10.36 18.21 9.41 18.5 8 18.5C5.58 18.5 4.51 17.65 4.02 16.94C3.72625 16.5162 3.54712 16.0235 3.5 15.51V15.25C3.5 14.84 3.84 14.5 4.25 14.5H11.73C11.98 14.02 12.29 13.58 12.64 13.18C12.3587 13.0599 12.0558 12.9986 11.75 13H4.25ZM14.28 13.98C14.3553 14.2387 14.3774 14.51 14.3453 14.7775C14.3131 15.0451 14.2271 15.3033 14.0926 15.5368C13.9582 15.7703 13.7779 15.9742 13.5626 16.1363C13.3474 16.2984 13.1016 16.4153 12.84 16.48L12.25 16.62C12.1552 17.2163 12.1552 17.8237 12.25 18.42L12.8 18.55C13.0636 18.6135 13.3115 18.7299 13.5287 18.8922C13.7459 19.0545 13.9278 19.2592 14.0634 19.4939C14.1991 19.7287 14.2855 19.9886 14.3176 20.2578C14.3497 20.527 14.3267 20.7999 14.25 21.06L14.06 21.7C14.5 22.08 15 22.4 15.55 22.62L16.04 22.1C16.2268 21.9033 16.4517 21.7467 16.701 21.6397C16.9503 21.5327 17.2187 21.4775 17.49 21.4775C17.7613 21.4775 18.0297 21.5327 18.279 21.6397C18.5283 21.7467 18.7532 21.9033 18.94 22.1L19.44 22.62C19.9795 22.4035 20.4796 22.0994 20.92 21.72L20.72 21.02C20.6447 20.7613 20.6226 20.49 20.6547 20.2225C20.6869 19.9549 20.7729 19.6967 20.9074 19.4632C21.0418 19.2297 21.2221 19.0258 21.4374 18.8637C21.6526 18.7016 21.8984 18.5847 22.16 18.52L22.75 18.38C22.8415 17.7832 22.8381 17.1757 22.74 16.58L22.2 16.45C21.9364 16.3865 21.6885 16.2701 21.4713 16.1078C21.2541 15.9455 21.0722 15.7408 20.9366 15.5061C20.8009 15.2713 20.7145 15.0114 20.6824 14.7422C20.6503 14.473 20.6733 14.2001 20.75 13.94L20.94 13.31C20.5 12.92 20 12.61 19.45 12.38L18.96 12.9C18.7732 13.0967 18.5483 13.2533 18.299 13.3603C18.0497 13.4673 17.7813 13.5225 17.51 13.5225C17.2387 13.5225 16.9703 13.4673 16.721 13.3603C16.4717 13.2533 16.2468 13.0967 16.06 12.9L15.56 12.38C15.02 12.6 14.52 12.91 14.08 13.29L14.28 13.98ZM17.5 19C16.7 19 16.05 18.33 16.05 17.5C16.05 16.67 16.7 16 17.5 16C18.3 16 18.95 16.67 18.95 17.5C18.95 18.33 18.3 19 17.5 19Z" fill="white"/>
</svg>
