<svg width="24" height="24" viewBox="0 0 24 24" fill="none" xmlns="http://www.w3.org/2000/svg">
<g clip-path="url(#clip0_2607_2354)">
<path d="M20.3181 12.0069C20.5581 11.748 20.787 11.4891 20.9961 11.2311C22.653 9.18258 23.145 7.32686 22.383 6.00686C21.4333 4.36372 19.0033 4.15029 16.1593 4.80343C15.303 2.00572 13.9024 0 12.0013 0C10.1001 0 8.69783 2.00743 7.84154 4.80857C4.98897 4.15029 2.55039 4.35943 1.59811 6.00686C0.836107 7.32686 1.32896 9.18258 2.98497 11.2311C3.19411 11.49 3.42297 11.7489 3.66297 12.0069C3.42297 12.2657 3.19411 12.5246 2.98497 12.7826C1.32811 14.8312 0.836107 16.6869 1.59811 18.0069C2.22554 19.0937 3.49925 19.5557 5.11325 19.5557C5.94468 19.5557 6.87297 19.4203 7.84325 19.1966C8.69954 21.9943 10.1001 24 12.0013 24C13.9024 24 15.3021 21.9969 16.1584 19.2009C17.121 19.422 18.0424 19.5557 18.8687 19.5557C20.4818 19.5557 21.7564 19.0929 22.3838 18.0069C23.1458 16.6869 22.653 14.8312 20.997 12.7826C20.78 12.5163 20.5539 12.2575 20.319 12.0069H20.3181ZM18.8387 6.16543C19.917 6.16543 20.6421 6.42086 20.8975 6.864C21.2635 7.49829 20.7904 8.75829 19.6633 10.1529C19.4875 10.3706 19.2973 10.5891 19.0958 10.8069C18.4261 10.2084 17.7242 9.64703 16.9933 9.12515C16.904 8.22814 16.7667 7.33656 16.5818 6.45429C17.4373 6.26315 18.2044 6.16543 18.8387 6.16543ZM13.7053 14.976C13.1444 15.2989 12.5726 15.6025 11.991 15.8863C11.4093 15.6025 10.8376 15.2989 10.2767 14.976C9.72037 14.6538 9.17519 14.3128 8.64211 13.9534C8.59653 13.3033 8.57337 12.6518 8.57268 12C8.57268 11.3229 8.59925 10.68 8.64125 10.0603C9.1745 9.70077 9.71997 9.35971 10.2767 9.03772C10.8376 8.71591 11.4093 8.41344 11.991 8.13086C12.5498 8.40429 13.1181 8.69829 13.7053 9.03772C14.2795 9.36943 14.8315 9.71743 15.3613 10.074C15.4024 10.6894 15.429 11.328 15.429 12C15.429 12.6771 15.4024 13.32 15.3604 13.9397C14.8307 14.2972 14.2787 14.6443 13.7053 14.976ZM15.1195 16.1246C15.0655 16.464 15.0073 16.7923 14.9421 17.1069C14.6253 17.0013 14.3109 16.8884 13.9993 16.7683C14.187 16.6654 14.3781 16.5677 14.5624 16.4606C14.7518 16.3509 14.9344 16.2369 15.1195 16.1246ZM9.98268 16.7683C9.66726 16.89 9.35868 17.0006 9.05868 17.1009C8.99525 16.7923 8.93697 16.4709 8.88383 16.1383C9.06211 16.2463 9.23697 16.356 9.41954 16.4614C9.60468 16.5677 9.79497 16.6654 9.98268 16.7683ZM6.8704 12.6523C6.61241 12.4433 6.35948 12.228 6.11182 12.0069C6.35525 11.79 6.60725 11.5749 6.8704 11.3623C6.86525 11.5749 6.8584 11.7883 6.8584 12.0009C6.8584 12.2177 6.86611 12.4354 6.87125 12.6523H6.8704ZM8.88211 7.87715C8.9344 7.54543 8.99183 7.224 9.05525 6.91629C9.35783 7.01658 9.66297 7.12115 9.98097 7.24286C9.79325 7.34572 9.60383 7.446 9.41954 7.55315C9.23697 7.65858 9.06125 7.76915 8.88211 7.87715ZM14.0001 7.24286C14.325 7.11772 14.637 7.01143 14.9447 6.90943C15.0098 7.22315 15.0681 7.55143 15.1213 7.89C14.9353 7.77686 14.7518 7.662 14.5615 7.55315C14.3764 7.44686 14.187 7.34572 13.9993 7.24286H14.0001ZM17.1313 11.3794C17.3867 11.5869 17.6327 11.796 17.8693 12.0069C17.6327 12.2177 17.3867 12.4269 17.1304 12.6343C17.1347 12.4226 17.1424 12.2109 17.1424 12C17.1424 11.7934 17.1347 11.586 17.1304 11.3794H17.1313ZM12.0004 1.71429C12.8164 1.71429 13.8141 2.98886 14.523 5.26029C13.6616 5.54189 12.8161 5.8698 11.9901 6.24257C11.1703 5.87219 10.3311 5.54628 9.47611 5.26629C10.185 2.99057 11.1844 1.71429 12.0004 1.71429ZM3.08354 6.864C3.33982 6.42086 4.06497 6.16543 5.14325 6.16543C5.78268 6.16543 6.55582 6.26572 7.41983 6.45943C7.23982 7.308 7.1044 8.19943 7.01097 9.11058C6.27238 9.63691 5.5633 10.2035 4.88697 10.8077C4.69123 10.5955 4.502 10.3774 4.31954 10.1537C3.19154 8.75915 2.71839 7.49829 3.08439 6.86486L3.08354 6.864ZM3.08354 17.1497C2.71754 16.5163 3.19068 15.2563 4.31868 13.8609C4.4944 13.6431 4.68468 13.4246 4.88611 13.2069C5.53154 13.7872 6.2464 14.3554 7.01183 14.9049C7.10172 15.7967 7.23934 16.6832 7.42411 17.5603C5.09782 18.0849 3.49239 17.8577 3.08354 17.1506V17.1497ZM12.0013 22.2857C11.1861 22.2857 10.1893 21.0137 9.4804 18.7449C10.3341 18.4658 11.1722 18.1411 11.991 17.772C12.8361 18.1517 13.6855 18.48 14.5204 18.75C13.8115 21.0154 12.8155 22.2857 12.0013 22.2857ZM20.8984 17.1497C20.4913 17.8552 18.8935 18.0823 16.5784 17.5637C16.761 16.7074 16.899 15.8083 16.9924 14.8886C17.7239 14.3664 18.4264 13.8047 19.0967 13.206C19.2973 13.4246 19.4875 13.6423 19.6641 13.86C20.7913 15.2546 21.2644 16.5154 20.8984 17.1497ZM13.7155 12C13.7155 12.9454 12.9467 13.7143 12.0013 13.7143C11.0558 13.7143 10.287 12.9454 10.287 12C10.287 11.0546 11.0558 10.2857 12.0013 10.2857C12.9467 10.2857 13.7155 11.0546 13.7155 12Z" fill="url(#paint0_linear_2607_2354)"/>
</g>
<defs>
<linearGradient id="paint0_linear_2607_2354" x1="0.431406" y1="24.8557" x2="25.2799" y2="23.0621" gradientUnits="userSpaceOnUse">
<stop stop-color="#5F9FFF"/>
<stop offset="1" stop-color="#5D34EC"/>
</linearGradient>
<clipPath id="clip0_2607_2354">
<rect width="24" height="24" fill="white"/>
</clipPath>
</defs>
</svg>
