<svg width="24" height="24" viewBox="0 0 24 24" fill="none" xmlns="http://www.w3.org/2000/svg">
<path d="M20.5355 12.8119H18.6794C18.8686 13.3298 18.972 13.8888 18.972 14.4714V21.4863C18.972 21.7292 18.9297 21.9623 18.8527 22.1792H21.9212C23.0675 22.1792 24 21.2466 24 20.1005V16.2764C24 14.3661 22.4458 12.8119 20.5355 12.8119ZM5.02805 14.4715C5.02805 13.8888 5.13141 13.3299 5.32059 12.8119H3.46453C1.55419 12.8119 0 14.3661 0 16.2764V20.1006C0 21.2467 0.932484 22.1793 2.07872 22.1793H5.14725C5.06827 21.9568 5.02796 21.7224 5.02805 21.4863V14.4715ZM14.1216 11.0069H9.87839C7.96805 11.0069 6.41386 12.5611 6.41386 14.4715V21.4863C6.41386 21.869 6.72408 22.1792 7.10677 22.1792H16.8932C17.2759 22.1792 17.5861 21.869 17.5861 21.4863V14.4715C17.5861 12.5611 16.032 11.0069 14.1216 11.0069ZM12 1.82062C9.70256 1.82062 7.83347 3.68971 7.83347 5.9872C7.83347 7.54555 8.69358 8.90657 9.9638 9.62113C10.5663 9.96004 11.2609 10.1537 12 10.1537C12.7391 10.1537 13.4337 9.96004 14.0362 9.62113C15.3065 8.90657 16.1665 7.54551 16.1665 5.9872C16.1665 3.68976 14.2974 1.82062 12 1.82062ZM4.68366 5.70416C2.96545 5.70416 1.56764 7.10198 1.56764 8.82018C1.56764 10.5384 2.96545 11.9362 4.68366 11.9362C5.10589 11.9366 5.52374 11.8506 5.91155 11.6836C6.56339 11.403 7.10086 10.9062 7.43344 10.2839C7.67436 9.83369 7.80018 9.33084 7.79967 8.82018C7.79967 7.10202 6.40186 5.70416 4.68366 5.70416ZM19.3163 5.70416C17.5981 5.70416 16.2003 7.10198 16.2003 8.82018C16.1998 9.33084 16.3256 9.8337 16.5666 10.2839C16.8991 10.9063 17.4366 11.403 18.0885 11.6836C18.4763 11.8506 18.8941 11.9366 19.3163 11.9362C21.0345 11.9362 22.4324 10.5384 22.4324 8.82018C22.4324 7.10198 21.0345 5.70416 19.3163 5.70416Z" fill="url(#paint0_linear_2607_432)"/>
<defs>
<linearGradient id="paint0_linear_2607_432" x1="-0.912498" y1="22.9052" x2="26.7393" y2="20.2767" gradientUnits="userSpaceOnUse">
<stop stop-color="#5F9FFF"/>
<stop offset="1" stop-color="#5D34EC"/>
</linearGradient>
</defs>
</svg>
