<svg width="24" height="24" viewBox="0 0 24 24" fill="none" xmlns="http://www.w3.org/2000/svg">
<path d="M19.5 13.7475V17.01C19.5 18.195 18.8025 19.2525 17.7225 19.7475C16.41 20.3475 14.4225 21 12 21C9.5775 21 7.59 20.3475 6.27 19.7475C5.1975 19.2525 4.5 18.195 4.5 17.01V13.7475L9.8325 16.185C10.515 16.5 11.25 16.6575 12 16.6575C12.75 16.6575 13.485 16.5 14.1675 16.185L19.5 13.7475ZM22.5 12.375V17.25C22.5 17.6625 22.1625 18 21.75 18C21.3375 18 21 17.6625 21 17.25V13.065L22.5 12.375Z" fill="url(#paint0_linear_2194_7474)"/>
<path d="M10.4535 14.823C10.9389 15.0447 11.4663 15.1595 12 15.1595C12.5337 15.1595 13.0611 15.0447 13.5465 14.823L23.1248 10.4445C23.6648 10.1977 24 9.67499 24 9.08024C24 8.48549 23.6648 7.96199 23.1248 7.71524L13.5465 3.33749C13.0613 3.11545 12.534 3.00052 12.0004 3.00052C11.4668 3.00052 10.9394 3.11545 10.4543 3.33749L0.87525 7.71449C0.33525 7.96199 0 8.48474 0 9.07949C0 9.67424 0.33525 10.197 0.87525 10.4445L10.4535 14.823Z" fill="url(#paint1_linear_2194_7474)"/>
<defs>
<linearGradient id="paint0_linear_2194_7474" x1="3.81562" y1="21.3075" x2="24.1656" y2="17.8831" gradientUnits="userSpaceOnUse">
<stop stop-color="#5F9FFF"/>
<stop offset="1" stop-color="#5D34EC"/>
</linearGradient>
<linearGradient id="paint1_linear_2194_7474" x1="-0.9125" y1="15.593" x2="26.2998" y2="11.2619" gradientUnits="userSpaceOnUse">
<stop stop-color="#5F9FFF"/>
<stop offset="1" stop-color="#5D34EC"/>
</linearGradient>
</defs>
</svg>
