<svg width="24" height="24" viewBox="0 0 24 24" fill="none" xmlns="http://www.w3.org/2000/svg">
<path d="M4.22007 8.47003C4.52007 8.17003 4.99007 8.17003 5.28007 8.47003L12.0001 15.19L18.7201 8.47003C18.7887 8.39635 18.8715 8.33724 18.9635 8.29625C19.0555 8.25526 19.1548 8.23322 19.2556 8.23144C19.3563 8.22966 19.4563 8.24819 19.5497 8.28591C19.6431 8.32363 19.7279 8.37978 19.7991 8.45099C19.8703 8.52221 19.9265 8.60705 19.9642 8.70043C20.0019 8.79382 20.0204 8.89385 20.0187 8.99455C20.0169 9.09526 19.9948 9.19457 19.9539 9.28657C19.9129 9.37857 19.8538 9.46137 19.7801 9.53003L12.5301 16.78C12.2301 17.08 11.7601 17.08 11.4701 16.78L4.22007 9.53003C4.07962 9.38941 4.00073 9.19878 4.00073 9.00003C4.00073 8.80128 4.07962 8.61066 4.22007 8.47003Z" fill="white"/>
</svg>
