<svg width="32" height="32" viewBox="0 0 32 32" fill="none" xmlns="http://www.w3.org/2000/svg">
<path d="M9.41292 3.22666L10.9596 2.75999C12.7329 2.22666 14.6129 3.07999 15.3596 4.75999L16.5596 7.42666C16.8774 8.12644 16.9673 8.90841 16.8166 9.66206C16.6659 10.4157 16.2821 11.103 15.7196 11.6267L13.7329 13.4667C13.6723 13.5222 13.6343 13.5982 13.6262 13.68C13.5729 14.2133 13.9329 15.24 14.7596 16.6667C15.3596 17.7067 15.9062 18.44 16.3596 18.8533C16.6929 19.1333 16.8662 19.2 16.9462 19.1733L19.6129 18.36C20.3459 18.1343 21.1312 18.1441 21.8583 18.3881C22.5854 18.632 23.2177 19.0979 23.6662 19.72L25.3729 22.08C26.4396 23.5733 26.2529 25.6267 24.9196 26.88L23.7462 28.0133C23.119 28.608 22.3483 29.0299 21.5094 29.2379C20.6705 29.4458 19.792 29.4328 18.9596 29.2C15.2929 28.1733 11.9996 25.0667 9.03958 19.96C6.09292 14.8533 5.05292 10.44 6.01292 6.74666C6.22846 5.91529 6.65452 5.15345 7.25004 4.53458C7.84555 3.91571 8.59045 3.46068 9.41292 3.21333V3.22666ZM9.98625 5.13333C8.98625 5.43999 8.21292 6.23999 7.94625 7.26666C7.14625 10.3733 8.06625 14.28 10.7729 18.9733C13.4929 23.68 16.4129 26.4267 19.4929 27.28C20.5062 27.56 21.5996 27.2933 22.3596 26.5733L23.5596 25.4533C24.1596 24.88 24.2396 23.9467 23.7596 23.2667L22.0396 20.9067C21.8378 20.6255 21.5536 20.4141 21.2263 20.3018C20.8989 20.1895 20.5448 20.1819 20.2129 20.28L17.5196 21.1067C15.9596 21.5733 14.5462 20.3067 13.0262 17.68C11.9996 15.9067 11.5196 14.5333 11.6396 13.4667C11.7062 12.9067 11.9596 12.4 12.3729 12.0133L14.3729 10.16C14.8796 9.66666 15.0396 8.90666 14.7462 8.25333L13.5462 5.58666C13.1996 4.81333 12.3462 4.42666 11.5462 4.66666L9.98625 5.13333Z" fill="white"/>
</svg>
