<svg width="24" height="24" viewBox="0 0 24 24" fill="none" xmlns="http://www.w3.org/2000/svg">
<g clip-path="url(#clip0_2607_1184)">
<path d="M8.57143 22.2857H15.4286C15.4286 22.7404 15.248 23.1764 14.9265 23.4979C14.605 23.8194 14.1689 24 13.7143 24H10.2857C9.83106 24 9.39502 23.8194 9.07353 23.4979C8.75204 23.1764 8.57143 22.7404 8.57143 22.2857ZM15.4286 20.5714H8.57143V18.8571H15.4286V20.5714ZM19.7143 7.71429C19.7143 11.1626 18.2863 13.7854 16.2857 15.4286V16.2857C16.2857 16.513 16.1954 16.7311 16.0347 16.8918C15.8739 17.0526 15.6559 17.1429 15.4286 17.1429H12.8571V12C12.8571 12 13.1837 9.59829 14.8671 9.42857C14.4697 10.2024 14.1758 11.0252 13.9929 11.8757C16.9046 11.3066 17.1429 8.96057 17.1429 6.85714C14.6794 6.85714 12.3137 7.97914 12 10.2857C10.8909 8.42571 9.00514 7.71429 6.85714 7.71429C6.85714 10.4074 7.33371 12.0463 9.99171 12.6677C9.80797 11.8404 9.51935 11.0399 9.13286 10.2857C10.8163 10.4554 11.1429 12.8571 11.1429 12.8571V17.1429H8.57143C8.3441 17.1429 8.12608 17.0526 7.96534 16.8918C7.80459 16.7311 7.71429 16.513 7.71429 16.2857V15.4286C5.71457 13.7854 4.28571 11.1626 4.28571 7.71429C4.28571 3.44657 7.71429 0 12 0C16.2857 0 19.7143 3.44657 19.7143 7.71429ZM3.45086 12.6583C3.56452 12.8552 3.59532 13.0891 3.53648 13.3087C3.47765 13.5283 3.33401 13.7155 3.13714 13.8291L2.39486 14.2577C2.19809 14.3696 1.96507 14.3991 1.74663 14.3398C1.52819 14.2805 1.34208 14.1372 1.22891 13.9412C1.11573 13.7451 1.08469 13.5123 1.14254 13.2935C1.20039 13.0747 1.34245 12.8876 1.53771 12.7731L2.28 12.3446C2.47687 12.2309 2.71082 12.2001 2.9304 12.2589C3.14998 12.3178 3.33719 12.4614 3.45086 12.6583ZM22.776 13.944C22.6623 14.1409 22.4751 14.2845 22.2555 14.3433C22.036 14.4022 21.802 14.3714 21.6051 14.2577L20.8629 13.8291C20.6676 13.7147 20.5255 13.5276 20.4677 13.3088C20.4098 13.09 20.4409 12.8571 20.5541 12.6611C20.6672 12.4651 20.8533 12.3218 21.0718 12.2625C21.2902 12.2032 21.5232 12.2327 21.72 12.3446L22.4623 12.7731C22.6591 12.8868 22.8028 13.074 22.8616 13.2936C22.9205 13.5132 22.8897 13.7471 22.776 13.944ZM24 7.71429C24 7.94161 23.9097 8.15963 23.7489 8.32038C23.5882 8.48112 23.3702 8.57143 23.1429 8.57143H22.2857C22.0584 8.57143 21.8404 8.48112 21.6796 8.32038C21.5189 8.15963 21.4286 7.94161 21.4286 7.71429C21.4286 7.48696 21.5189 7.26894 21.6796 7.10819C21.8404 6.94745 22.0584 6.85714 22.2857 6.85714H23.1429C23.3702 6.85714 23.5882 6.94745 23.7489 7.10819C23.9097 7.26894 24 7.48696 24 7.71429ZM1.71429 8.57143H0.857143C0.629814 8.57143 0.411797 8.48112 0.251051 8.32038C0.0903058 8.15963 0 7.94161 0 7.71429C0 7.48696 0.0903058 7.26894 0.251051 7.10819C0.411797 6.94745 0.629814 6.85714 0.857143 6.85714H1.71429C1.94161 6.85714 2.15963 6.94745 2.32038 7.10819C2.48112 7.26894 2.57143 7.48696 2.57143 7.71429C2.57143 7.94161 2.48112 8.15963 2.32038 8.32038C2.15963 8.48112 1.94161 8.57143 1.71429 8.57143ZM20.2937 2.91514C20.1801 2.71828 20.1493 2.48432 20.2081 2.26474C20.2669 2.04517 20.4106 1.85795 20.6074 1.74429L21.3497 1.31571C21.4472 1.25855 21.5551 1.22123 21.6671 1.20592C21.7791 1.1906 21.893 1.19759 22.0023 1.22649C22.1116 1.25538 22.2141 1.3056 22.3039 1.37427C22.3937 1.44293 22.469 1.52868 22.5255 1.62658C22.582 1.72447 22.6186 1.83258 22.6332 1.94468C22.6478 2.05677 22.64 2.17065 22.6104 2.27974C22.5808 2.38883 22.5299 2.49098 22.4606 2.58032C22.3914 2.66966 22.3051 2.74442 22.2069 2.80029L21.4646 3.22886C21.2677 3.34252 21.0337 3.37332 20.8142 3.31448C20.5946 3.25565 20.4074 3.11201 20.2937 2.91514ZM1.48029 1.62943C1.5364 1.53178 1.61125 1.44618 1.70053 1.37753C1.78982 1.30889 1.89177 1.25855 2.00056 1.2294C2.10934 1.20025 2.22281 1.19287 2.33446 1.20768C2.4461 1.2225 2.55372 1.25921 2.65114 1.31571L3.39343 1.74429C3.4917 1.80016 3.57794 1.87491 3.6472 1.96425C3.71646 2.05359 3.76736 2.15574 3.79698 2.26484C3.8266 2.37393 3.83434 2.4878 3.81977 2.5999C3.8052 2.71199 3.7686 2.8201 3.71208 2.918C3.65556 3.01589 3.58024 3.10164 3.49044 3.1703C3.40064 3.23897 3.29815 3.28919 3.18887 3.31808C3.07958 3.34698 2.96566 3.35397 2.85366 3.33866C2.74167 3.32334 2.6338 3.28603 2.53629 3.22886L1.794 2.80029C1.59714 2.68662 1.45349 2.4994 1.39466 2.27983C1.33583 2.06025 1.36663 1.8263 1.48029 1.62943Z" fill="url(#paint0_linear_2607_1184)"/>
</g>
<defs>
<linearGradient id="paint0_linear_2607_1184" x1="-0.9125" y1="24.8557" x2="26.8089" y2="22.6205" gradientUnits="userSpaceOnUse">
<stop stop-color="#5F9FFF"/>
<stop offset="1" stop-color="#5D34EC"/>
</linearGradient>
<clipPath id="clip0_2607_1184">
<rect width="24" height="24" fill="white"/>
</clipPath>
</defs>
</svg>
