<svg width="24" height="24" viewBox="0 0 24 24" fill="none" xmlns="http://www.w3.org/2000/svg">
<path d="M21.2499 18C21.4488 17.9867 21.6449 18.053 21.7949 18.1843C21.9449 18.3155 22.0366 18.501 22.0499 18.7C22.0632 18.8989 21.9969 19.0949 21.8656 19.2449C21.7343 19.395 21.5488 19.4867 21.3499 19.5H2.74991C2.551 19.5132 2.35496 19.4469 2.20493 19.3156C2.0549 19.1844 1.96317 18.9989 1.94991 18.8C1.93665 18.601 2.00295 18.405 2.13422 18.255C2.2655 18.105 2.451 18.0132 2.64991 18H21.2499ZM21.2499 11.5C21.4488 11.4867 21.6449 11.553 21.7949 11.6843C21.9449 11.8155 22.0366 12.001 22.0499 12.2C22.0632 12.3989 21.9969 12.5949 21.8656 12.7449C21.7343 12.895 21.5488 12.9867 21.3499 13H2.74991C2.551 13.0132 2.35496 12.9469 2.20493 12.8156C2.0549 12.6844 1.96317 12.4989 1.94991 12.3C1.93665 12.101 2.00295 11.905 2.13422 11.755C2.2655 11.605 2.451 11.5132 2.64991 11.5H21.2499ZM2.74991 4.99996H21.2499C21.4488 4.9867 21.6449 5.053 21.7949 5.18427C21.9449 5.31555 22.0366 5.50104 22.0499 5.69996C22.0632 5.89887 21.9969 6.0949 21.8656 6.24493C21.7343 6.39496 21.5488 6.4867 21.3499 6.49996H2.74991C2.56328 6.49489 2.38524 6.42039 2.25062 6.29102C2.116 6.16166 2.03447 5.98674 2.02197 5.80046C2.00946 5.61417 2.06689 5.42993 2.18302 5.28373C2.29915 5.13754 2.46563 5.03992 2.64991 5.00996H21.2499H2.74991V4.99996Z" fill="#020F1F"/>
</svg>
