<svg width="24" height="24" viewBox="0 0 24 24" fill="none" xmlns="http://www.w3.org/2000/svg">
<path d="M11.0257 3.45516V3.97744C11.7504 3.92836 12.1384 3.98714 12.1787 3.9937C12.2935 4.01246 12.4021 4.05893 12.4949 4.12909C12.5878 4.19925 12.6621 4.29099 12.7115 4.39636L13.7299 6.56691C13.8572 6.59624 13.974 6.65997 14.0676 6.75113C14.1904 6.87084 14.3375 6.96459 14.5041 7.00523C14.8369 7.08633 15.1669 6.99389 15.4002 6.76702C15.641 6.53302 16.0084 6.47353 16.2921 6.65297C16.6979 6.90928 16.7415 7.45237 16.4232 7.77061C15.9743 8.21977 15.3772 8.46717 14.742 8.46717C14.7013 8.46713 14.6605 8.46609 14.6199 8.46403L15.9889 11.3822C16.0465 11.5048 16.1014 11.6287 16.1535 11.7537C17.6951 11.2676 19.4485 11.6287 20.6737 12.8399C20.9476 13.1105 20.978 13.5525 20.722 13.8404C20.6548 13.9163 20.5723 13.9771 20.4798 14.0187C20.3873 14.0602 20.2871 14.0817 20.1857 14.0815C20.0024 14.0815 19.819 14.0116 19.6792 13.8717C18.8488 13.0415 17.6567 12.789 16.6056 13.1129C17.0043 14.7023 16.9777 16.3425 16.5663 17.8806C16.7611 17.9451 16.9583 18.0021 17.1575 18.0517C17.39 18.1095 17.6331 18.1097 17.8658 18.0524C21.4486 17.1661 24 13.944 24 10.2111V3.45516C24 3.12061 23.7934 2.8207 23.4803 2.70295C22.4936 2.33222 20.5865 1.82812 17.5131 1.82812C14.4394 1.82812 12.5322 2.33241 11.5453 2.70319C11.2322 2.82075 11.0256 3.12066 11.0256 3.4552L11.0257 3.45516ZM18.9462 6.7575C19.2261 6.4777 19.6796 6.4777 19.9596 6.7575C20.0471 6.84549 20.1511 6.91524 20.2658 6.96274C20.3804 7.01024 20.5033 7.03453 20.6274 7.0342C20.7515 7.03453 20.8744 7.01024 20.9891 6.96274C21.1037 6.91525 21.2078 6.84549 21.2953 6.7575C21.5751 6.47756 22.0288 6.47756 22.3086 6.7575C22.5884 7.0373 22.5884 7.49086 22.3086 7.77061C21.8595 8.21977 21.2626 8.46717 20.6274 8.46717C19.9924 8.46717 19.3953 8.21977 18.9461 7.77061C18.6665 7.49086 18.6665 7.0373 18.9462 6.7575Z" fill="url(#paint0_linear_2607_3452)"/>
<path d="M14.6918 11.9908L11.807 5.84215C11.6742 5.55902 11.3801 5.38858 11.0683 5.41221C10.0266 5.49096 8.0727 5.83643 5.25837 7.15685C2.47569 8.46237 0.963218 9.72888 0.227375 10.4837C-0.00606291 10.7232 -0.0657817 11.0824 0.0762965 11.3853L2.94575 17.5016C4.53125 20.881 8.21 22.7144 11.8302 21.9948C12.0642 21.9483 12.2833 21.8455 12.4685 21.6952C15.3359 19.3713 16.2773 15.3704 14.6918 11.9908ZM8.89428 11.5325C9.33978 10.2995 10.7054 9.65862 11.9384 10.1043C12.3105 10.2387 12.5031 10.6494 12.3687 11.0216C12.2343 11.3937 11.8236 11.5865 11.4514 11.452C10.9615 11.2751 10.419 11.5296 10.242 12.0194C10.1365 12.3113 9.86145 12.4927 9.56811 12.4927C9.4872 12.4927 9.40498 12.479 9.32459 12.4499C8.9525 12.3153 8.7597 11.9046 8.89428 11.5325V11.5325ZM6.12336 13.9517C6.00674 13.9092 5.88284 13.8903 5.75885 13.896C5.63486 13.9017 5.51323 13.9319 5.40102 13.985C5.28854 14.0374 5.18757 14.1116 5.10396 14.2033C5.02035 14.2949 4.95577 14.4023 4.91394 14.5191C4.80847 14.811 4.53327 14.9925 4.23992 14.9925C4.15916 14.9925 4.07698 14.9786 3.99659 14.9496C3.62431 14.8152 3.4317 14.4045 3.56609 14.0323C3.782 13.435 4.21742 12.9574 4.79234 12.6877C5.3675 12.418 6.01297 12.3882 6.61025 12.6041C6.98244 12.7384 7.17509 13.1492 7.0407 13.5214C6.90612 13.8935 6.49541 14.0861 6.12336 13.9517ZM8.52917 18.6352C8.00959 18.635 7.49401 18.5444 7.00555 18.3673C6.63331 18.2329 6.4407 17.8222 6.57509 17.4499C6.70962 17.0779 7.12016 16.8851 7.49244 17.0196C9.08122 17.5937 10.8409 16.7681 11.4149 15.1794C11.5493 14.8072 11.96 14.6146 12.3323 14.749C12.7043 14.8835 12.897 15.2942 12.7626 15.6665C12.1017 17.4951 10.3703 18.6352 8.52917 18.6352Z" fill="url(#paint1_linear_2607_3452)"/>
<defs>
<linearGradient id="paint0_linear_2607_3452" x1="10.5323" y1="18.6752" x2="25.5538" y2="17.7092" gradientUnits="userSpaceOnUse">
<stop stop-color="#5F9FFF"/>
<stop offset="1" stop-color="#5D34EC"/>
</linearGradient>
<linearGradient id="paint1_linear_2607_3452" x1="-0.58771" y1="22.7467" x2="17.2837" y2="21.4161" gradientUnits="userSpaceOnUse">
<stop stop-color="#5F9FFF"/>
<stop offset="1" stop-color="#5D34EC"/>
</linearGradient>
</defs>
</svg>
