<svg width="32" height="32" viewBox="0 0 32 32" fill="none" xmlns="http://www.w3.org/2000/svg">
<path d="M6.99935 5.33334H24.9993C26.1059 5.33504 27.1699 5.76002 27.9732 6.52112C28.7764 7.28223 29.2581 8.3218 29.3193 9.42667L29.3327 9.66667V22.3333C29.331 23.4399 28.906 24.5039 28.1449 25.3071C27.3838 26.1104 26.3442 26.592 25.2393 26.6533L24.9993 26.6667H6.99935C5.89278 26.665 4.82879 26.24 4.02554 25.4789C3.22228 24.7178 2.74063 23.6782 2.67935 22.5733L2.66602 22.3333V9.66667C2.66772 8.5601 3.0927 7.49611 3.8538 6.69286C4.61491 5.8896 5.65448 5.40796 6.75935 5.34667L6.99935 5.33334ZM27.3327 12.4933L16.466 18.2267C16.2127 18.36 15.9327 18.36 15.666 18.28L15.5327 18.2133L4.66602 12.4933V22.3333C4.66602 23.56 5.59935 24.56 6.79935 24.6533L6.99935 24.6667H24.9993C26.226 24.6667 27.226 23.7333 27.3193 22.5333L27.3327 22.3333V12.4933ZM24.9993 7.33334H6.99935C5.77268 7.33334 4.77268 8.26667 4.67935 9.46667L4.66602 9.66667V10.24L15.9993 16.2L27.3327 10.24V9.66667C27.3327 8.44 26.3993 7.44 25.1993 7.34667L24.9993 7.33334Z" fill="white"/>
</svg>
