<svg width="24" height="24" viewBox="0 0 24 24" fill="none" xmlns="http://www.w3.org/2000/svg">
<path d="M10.55 2.53C11.39 1.83 12.61 1.83 13.45 2.53L20.2 8.23C20.7 8.65 21 9.28 21 9.94V19.25C21 20.22 20.22 21 19.25 21H15.75C14.78 21 14 20.22 14 19.25V14.25C14 14.1837 13.9737 14.1201 13.9268 14.0732C13.8799 14.0263 13.8163 14 13.75 14H10.25C10.1837 14 10.1201 14.0263 10.0732 14.0732C10.0263 14.1201 10 14.1837 10 14.25V19.25C10 20.22 9.22 21 8.25 21H4.75C3.78 21 3 20.22 3 19.25V9.95C3 9.28 3.3 8.65 3.8 8.22001L10.55 2.53ZM12.48 3.68C12.3452 3.56775 12.1754 3.50629 12 3.50629C11.8246 3.50629 11.6548 3.56775 11.52 3.68L4.77 9.38C4.68757 9.44862 4.62082 9.53411 4.57424 9.63071C4.52767 9.72732 4.50235 9.83278 4.5 9.94V19.25C4.5 19.39 4.61 19.5 4.75 19.5H8.25C8.39 19.5 8.5 19.4 8.5 19.25V14.25C8.5 13.28 9.28 12.5 10.25 12.5H13.75C14.72 12.5 15.5 13.28 15.5 14.25V19.25C15.5 19.39 15.61 19.5 15.75 19.5H19.25C19.39 19.5 19.5 19.4 19.5 19.25V9.95C19.5 9.72 19.4 9.51 19.23 9.37L12.48 3.67V3.68Z" fill="white"/>
</svg>
