<svg width="32" height="32" viewBox="0 0 32 32" fill="none" xmlns="http://www.w3.org/2000/svg">
<path d="M15.9993 2.66667C19.5356 2.66667 22.927 4.07142 25.4274 6.57191C27.9279 9.0724 29.3327 12.4638 29.3327 16C29.3327 19.5362 27.9279 22.9276 25.4274 25.4281C22.927 27.9286 19.5356 29.3333 15.9993 29.3333C12.4631 29.3333 9.07174 27.9286 6.57126 25.4281C4.07077 22.9276 2.66602 19.5362 2.66602 16C2.66602 12.4638 4.07077 9.0724 6.57126 6.57191C9.07174 4.07142 12.4631 2.66667 15.9993 2.66667ZM19.9193 22H12.0793C12.946 25.2133 14.466 27.3333 15.9993 27.3333C17.5327 27.3333 19.0527 25.2133 19.9193 22ZM10.0127 22H6.38602C7.67204 24.0587 9.58296 25.6519 11.8393 26.5467C11.146 25.4533 10.5727 24.08 10.146 22.52L10.0127 22ZM25.6127 22H21.9993C21.5727 23.7733 20.946 25.3333 20.1727 26.5467C22.284 25.7063 24.0952 24.2527 25.3727 22.3733L25.6393 22H25.6127ZM9.46602 13.3333H4.98602V13.36C4.45382 15.5637 4.59313 17.8762 5.38602 20H9.62602C9.29365 17.7934 9.23543 15.5542 9.45268 13.3333H9.46602ZM20.5327 13.3333H11.466C11.2337 15.5541 11.2965 17.7958 11.6527 20H20.346C20.7098 17.7965 20.7726 15.5538 20.5327 13.3333ZM27.026 13.3333H22.5593C22.7693 15.5545 22.7111 17.7928 22.386 20H26.626C27.4276 17.8688 27.567 15.5451 27.026 13.3333ZM11.8393 5.45333H11.8127C9.08281 6.54135 6.88003 8.64378 5.66602 11.32L9.73268 11.3333C10.146 9 10.8793 6.96 11.8393 5.45333ZM15.9993 4.65333L15.8393 4.66667C14.1593 4.82667 12.5327 7.49333 11.7727 11.3333H20.226C19.4793 7.50667 17.8527 4.84 16.1727 4.66667H15.9993V4.65333ZM20.1593 5.45333L20.2927 5.68C21.2826 7.43155 21.951 9.34621 22.266 11.3333H26.3327C25.1751 8.77832 23.1143 6.74119 20.546 5.61333L20.1593 5.45333Z" fill="white"/>
</svg>
