<svg width="24" height="24" viewBox="0 0 24 24" fill="none" xmlns="http://www.w3.org/2000/svg">
<path d="M3.836 15.841C4.49756 16.4287 5.24824 16.9077 6.06 17.26L10.304 14.595C10.7366 14.3261 11.2473 14.211 11.7534 14.2684C12.2595 14.3257 12.7315 14.5521 13.093 14.911L14.52 16.338C16.659 14.761 18 12.238 18 9.5C18 4.813 14.187 1 9.5 1C4.813 1 1 4.813 1 9.5C1.00019 10.6969 1.25289 11.8804 1.74157 12.973C2.23025 14.0657 2.94393 15.0429 3.836 15.841ZM9.88 10.25H9.12C8.58886 10.2507 8.07676 10.0522 7.68485 9.69373C7.29295 9.33523 7.04974 8.8428 7.00326 8.31369C6.95678 7.78459 7.11041 7.25729 7.43382 6.83596C7.75722 6.41462 8.22687 6.12989 8.75 6.038V5.25C8.75 5.05109 8.82902 4.86032 8.96967 4.71967C9.11032 4.57902 9.30109 4.5 9.5 4.5C9.69891 4.5 9.88968 4.57902 10.0303 4.71967C10.171 4.86032 10.25 5.05109 10.25 5.25V6H11.25C11.4489 6 11.6397 6.07902 11.7803 6.21967C11.921 6.36032 12 6.55109 12 6.75C12 6.94891 11.921 7.13968 11.7803 7.28033C11.6397 7.42098 11.4489 7.5 11.25 7.5H9.12C8.95557 7.5 8.79787 7.56532 8.68159 7.68159C8.56532 7.79787 8.5 7.95557 8.5 8.12C8.5 8.472 8.778 8.75 9.12 8.75H9.88C10.4111 8.74928 10.9232 8.94777 11.3151 9.30627C11.7071 9.66477 11.9503 10.1572 11.9967 10.6863C12.0432 11.2154 11.8896 11.7427 11.5662 12.164C11.2428 12.5854 10.7731 12.8701 10.25 12.962V13.749C10.25 13.9479 10.171 14.1387 10.0303 14.2793C9.88968 14.42 9.69891 14.499 9.5 14.499C9.30109 14.499 9.11032 14.42 8.96967 14.2793C8.82902 14.1387 8.75 13.9479 8.75 13.749V13H7.75C7.55109 13 7.36032 12.921 7.21967 12.7803C7.07902 12.6397 7 12.4489 7 12.25C7 12.0511 7.07902 11.8603 7.21967 11.7197C7.36032 11.579 7.55109 11.5 7.75 11.5H9.88C10.0444 11.5 10.2021 11.4347 10.3184 11.3184C10.4347 11.2021 10.5 11.0444 10.5 10.88C10.5009 10.7979 10.4856 10.7163 10.4549 10.6401C10.4242 10.5639 10.3787 10.4946 10.3211 10.436C10.2635 10.3774 10.1948 10.3309 10.1191 10.2989C10.0434 10.267 9.96215 10.2504 9.88 10.25Z" fill="url(#paint0_linear_2607_331)"/>
<path d="M23 12H19C18.8023 12 18.609 12.0587 18.4445 12.1686C18.2801 12.2785 18.152 12.4346 18.0763 12.6173C18.0007 12.8 17.9809 13.0011 18.0194 13.195C18.058 13.389 18.1532 13.5671 18.293 13.707L19.586 15L15.5 19.086L12.207 15.793C12.0476 15.6338 11.8392 15.533 11.6154 15.507C11.3916 15.4811 11.1656 15.5315 10.974 15.65L0.474008 22.15C0.25673 22.2932 0.103853 22.5155 0.0478476 22.7697C-0.00815766 23.0238 0.0371211 23.2898 0.174067 23.5111C0.311013 23.7324 0.528836 23.8916 0.781272 23.9549C1.03371 24.0182 1.30087 23.9805 1.52601 23.85L11.352 17.767L14.792 21.207C14.8848 21.2999 14.995 21.3737 15.1163 21.424C15.2376 21.4743 15.3677 21.5002 15.499 21.5002C15.6303 21.5002 15.7604 21.4743 15.8817 21.424C16.003 21.3737 16.1132 21.2999 16.206 21.207L21 16.414L22.293 17.707C22.4329 17.8468 22.611 17.942 22.805 17.9806C22.9989 18.0192 23.2 17.9993 23.3827 17.9237C23.5654 17.848 23.7215 17.7199 23.8314 17.5555C23.9413 17.391 24 17.1978 24 17V13C24 12.7348 23.8947 12.4804 23.7071 12.2929C23.5196 12.1054 23.2652 12 23 12Z" fill="url(#paint1_linear_2607_331)"/>
<defs>
<linearGradient id="paint0_linear_2607_331" x1="0.353646" y1="17.8398" x2="19.9778" y2="16.1854" gradientUnits="userSpaceOnUse">
<stop stop-color="#5F9FFF"/>
<stop offset="1" stop-color="#5D34EC"/>
</linearGradient>
<linearGradient id="paint1_linear_2607_331" x1="-0.887158" y1="24.4122" x2="26.2793" y2="20.0301" gradientUnits="userSpaceOnUse">
<stop stop-color="#5F9FFF"/>
<stop offset="1" stop-color="#5D34EC"/>
</linearGradient>
</defs>
</svg>
