<svg width="24" height="24" viewBox="0 0 24 24" fill="none" xmlns="http://www.w3.org/2000/svg">
<path d="M8.5 11.5C8.76522 11.5 9.01957 11.6054 9.20711 11.7929C9.39464 11.9804 9.5 12.2348 9.5 12.5C9.5 12.7652 9.39464 13.0196 9.20711 13.2071C9.01957 13.3947 8.76522 13.5 8.5 13.5C8.23479 13.5 7.98043 13.3947 7.79289 13.2071C7.60536 13.0196 7.5 12.7652 7.5 12.5C7.5 12.2348 7.60536 11.9804 7.79289 11.7929C7.98043 11.6054 8.23479 11.5 8.5 11.5ZM12 4.35001V11H19.44L17.72 9.28001C17.5924 9.15241 17.515 8.98308 17.5022 8.80307C17.4893 8.62306 17.5418 8.44445 17.65 8.30001L17.72 8.22001C17.8476 8.09239 18.0169 8.01506 18.1969 8.0022C18.377 7.98934 18.5556 8.04182 18.7 8.15001L18.78 8.22001L21.78 11.22C22.04 11.48 22.07 11.9 21.85 12.19L21.78 12.28L18.78 15.28C18.6448 15.4039 18.4689 15.4739 18.2855 15.4768C18.1022 15.4798 17.9241 15.4155 17.7849 15.296C17.6458 15.1766 17.5552 15.0103 17.5304 14.8286C17.5055 14.6469 17.5481 14.4624 17.65 14.31L17.72 14.22L19.43 12.5H12V19.25C12 19.72 11.58 20.07 11.12 19.99L2.62 18.49C2.44607 18.4594 2.28853 18.3684 2.17511 18.233C2.06169 18.0977 1.99968 17.9266 2 17.75V5.75001C2 5.38001 2.27 5.07001 2.63 5.01001L11.13 3.61001C11.59 3.54001 12 3.89001 12 4.35001ZM10.5 5.24001L3.5 6.39001V17.12L10.5 18.36V5.24001ZM13 18.5H13.87C14.0511 18.4757 14.2171 18.386 14.3368 18.2479C14.4565 18.1098 14.5216 17.9328 14.52 17.75L14.51 13.5H13V18.5ZM13 10V5.00001H13.75C14.12 5.00001 14.44 5.28001 14.49 5.65001V5.75001L14.5 10H13Z" fill="white"/>
</svg>
