<svg width="24" height="24" viewBox="0 0 24 24" fill="none" xmlns="http://www.w3.org/2000/svg">
<g clip-path="url(#clip0_2607_557)">
<path d="M8.04021 5.14334H15.96L17.9057 1.24344C17.9956 1.06311 18.0191 0.856878 17.9721 0.660945C17.925 0.465013 17.8105 0.291911 17.6485 0.172036C17.4859 0.0507842 17.2856 -0.00886744 17.0831 0.00368777C16.8807 0.016243 16.6892 0.100191 16.5429 0.240605C15.982 0.678005 15.2816 0.897259 14.5715 0.857733C13.8654 0.896821 13.1688 0.680842 12.6087 0.249177C12.4481 0.0895369 12.2308 -6.80503e-05 12.0044 -6.80503e-05C11.778 -6.80503e-05 11.5607 0.0895369 11.4001 0.249177C10.8381 0.683517 10.1378 0.89969 9.42875 0.857733C8.72267 0.896821 8.02606 0.680842 7.46594 0.249177C7.32189 0.104015 7.13069 0.0151394 6.92686 -0.00140176C6.72303 -0.0179429 6.52 0.0389404 6.35443 0.158977C6.18886 0.279013 6.07167 0.454292 6.02401 0.653164C5.97635 0.852036 6.00137 1.06139 6.09455 1.24344L8.04021 5.14334ZM16.4914 6.85758H7.5088C5.67456 9.07753 2.57178 13.4831 2.57178 18.0002C2.57178 21.9172 5.55456 24 7.71451 24H16.2857C18.4457 24 21.4284 21.9172 21.4284 18.0002C21.4284 13.4831 18.3257 9.07753 16.4914 6.85758ZM12.8572 18.8573V19.7144C12.8572 19.9417 12.7669 20.1597 12.6062 20.3205C12.4454 20.4812 12.2274 20.5715 12.0001 20.5715C11.7728 20.5715 11.5548 20.4812 11.394 20.3205C11.2333 20.1597 11.143 19.9417 11.143 19.7144V18.8573C10.6928 18.8561 10.2508 18.7367 9.86123 18.5111C9.47166 18.2854 9.14814 17.9615 8.92305 17.5716C8.85251 17.4746 8.80311 17.3639 8.77804 17.2466C8.75298 17.1293 8.75281 17.0081 8.77754 16.8907C8.80227 16.7734 8.85135 16.6625 8.92161 16.5653C8.99187 16.4681 9.08175 16.3868 9.18543 16.3265C9.28911 16.2662 9.40429 16.2284 9.52352 16.2154C9.64274 16.2024 9.76337 16.2146 9.87759 16.2512C9.99181 16.2877 10.0971 16.3479 10.1866 16.4277C10.2761 16.5075 10.3479 16.6052 10.3973 16.7145C10.4728 16.8453 10.5815 16.9538 10.7125 17.0291C10.8434 17.1043 10.992 17.1436 11.143 17.143H12.8572C13.0846 17.143 13.3026 17.0527 13.4633 16.892C13.6241 16.7313 13.7144 16.5132 13.7144 16.2859C13.7144 16.0586 13.6241 15.8406 13.4633 15.6798C13.3026 15.5191 13.0846 15.4288 12.8572 15.4288H11.143C10.461 15.4288 9.80699 15.1579 9.32476 14.6757C8.84254 14.1934 8.57163 13.5394 8.57163 12.8574C8.57163 12.1755 8.84254 11.5214 9.32476 11.0392C9.80699 10.557 10.461 10.2861 11.143 10.2861V9.42895C11.143 9.20162 11.2333 8.98361 11.394 8.82287C11.5548 8.66213 11.7728 8.57182 12.0001 8.57182C12.2274 8.57182 12.4454 8.66213 12.6062 8.82287C12.7669 8.98361 12.8572 9.20162 12.8572 9.42895V10.2861C13.3074 10.2873 13.7494 10.4067 14.139 10.6323C14.5286 10.8579 14.8521 11.1819 15.0772 11.5717C15.1477 11.6687 15.1971 11.7795 15.2222 11.8967C15.2472 12.014 15.2474 12.1353 15.2227 12.2526C15.198 12.37 15.1489 12.4808 15.0786 12.578C15.0084 12.6752 14.9185 12.7566 14.8148 12.8169C14.7111 12.8771 14.5959 12.915 14.4767 12.928C14.3575 12.9409 14.2369 12.9287 14.1226 12.8922C14.0084 12.8556 13.9031 12.7955 13.8136 12.7157C13.7241 12.6359 13.6523 12.5382 13.6029 12.4289C13.5274 12.2981 13.4187 12.1895 13.2877 12.1143C13.1568 12.039 13.0083 11.9997 12.8572 12.0003H11.143C10.9157 12.0003 10.6977 12.0906 10.5369 12.2514C10.3762 12.4121 10.2859 12.6301 10.2859 12.8574C10.2859 13.0848 10.3762 13.3028 10.5369 13.4635C10.6977 13.6242 10.9157 13.7146 11.143 13.7146H12.8572C13.5392 13.7146 14.1932 13.9855 14.6755 14.4677C15.1577 14.9499 15.4286 15.6039 15.4286 16.2859C15.4286 16.9679 15.1577 17.6219 14.6755 18.1041C14.1932 18.5864 13.5392 18.8573 12.8572 18.8573Z" fill="url(#paint0_linear_2607_557)"/>
</g>
<defs>
<linearGradient id="paint0_linear_2607_557" x1="1.85483" y1="24.8559" x2="23.6894" y2="23.4728" gradientUnits="userSpaceOnUse">
<stop stop-color="#5F9FFF"/>
<stop offset="1" stop-color="#5D34EC"/>
</linearGradient>
<clipPath id="clip0_2607_557">
<rect width="24" height="24" fill="white"/>
</clipPath>
</defs>
</svg>
