<svg width="24" height="24" viewBox="0 0 24 24" fill="none" xmlns="http://www.w3.org/2000/svg">
<path d="M13 11.75H19.71C20.05 11.4 20.5 11.15 20.99 11.05C20.9004 9.21429 20.2803 7.44402 19.2048 5.95374C18.1292 4.46345 16.6445 3.31713 14.9306 2.65371C13.2167 1.9903 11.3471 1.83828 9.54848 2.21607C7.74988 2.59387 6.09948 3.48526 4.79732 4.78221C3.49516 6.07916 2.59715 7.72597 2.21214 9.52304C1.82713 11.3201 1.97165 13.1903 2.62819 14.9069C3.28472 16.6234 4.42508 18.1127 5.91104 19.1942C7.397 20.2757 9.16475 20.903 11 21V19.49C8.94817 19.3602 7.025 18.4455 5.62959 16.9356C4.23418 15.4257 3.47365 13.4365 3.50581 11.3808C3.53797 9.32503 4.36035 7.3606 5.80231 5.89507C7.24428 4.42955 9.19511 3.57543 11.25 3.50995V9.99995C11.25 10.97 12.03 11.75 13 11.75ZM13 10.25C12.9337 10.25 12.8702 10.2236 12.8233 10.1767C12.7764 10.1298 12.75 10.0663 12.75 9.99995V3.59995C14.4187 3.86424 15.9608 4.65 17.1554 5.8446C18.35 7.0392 19.1358 8.58133 19.4 10.25H13ZM21.5 12C20.67 12 20 12.67 20 13.5V21.5C20 21.8978 20.1581 22.2793 20.4394 22.5606C20.7207 22.8419 21.1022 23 21.5 23C21.8979 23 22.2794 22.8419 22.5607 22.5606C22.842 22.2793 23 21.8978 23 21.5V13.5C23 12.67 22.33 12 21.5 12ZM13.5 18C12.67 18 12 18.67 12 19.5V21.5C12 21.8978 12.1581 22.2793 12.4394 22.5606C12.7207 22.8419 13.1022 23 13.5 23C13.8979 23 14.2794 22.8419 14.5607 22.5606C14.842 22.2793 15 21.8978 15 21.5V19.5C15 18.67 14.33 18 13.5 18ZM16 16.5C16 16.1021 16.1581 15.7206 16.4394 15.4393C16.7207 15.158 17.1022 15 17.5 15C17.8979 15 18.2794 15.158 18.5607 15.4393C18.842 15.7206 19 16.1021 19 16.5V21.5C19 21.8978 18.842 22.2793 18.5607 22.5606C18.2794 22.8419 17.8979 23 17.5 23C17.1022 23 16.7207 22.8419 16.4394 22.5606C16.1581 22.2793 16 21.8978 16 21.5V16.5Z" fill="white"/>
</svg>
