<svg width="24" height="24" viewBox="0 0 24 24" fill="none" xmlns="http://www.w3.org/2000/svg">
<path d="M9.5 16.75C9.5 16.5511 9.42098 16.3603 9.28033 16.2197C9.13968 16.079 8.94891 16 8.75 16C8.55109 16 8.36032 16.079 8.21967 16.2197C8.07902 16.3603 8 16.5511 8 16.75V18.25C8 18.4489 8.07902 18.6397 8.21967 18.7803C8.36032 18.921 8.55109 19 8.75 19C8.94891 19 9.13968 18.921 9.28033 18.7803C9.42098 18.6397 9.5 18.4489 9.5 18.25V16.75ZM12 12C12.41 12 12.75 12.34 12.75 12.75V18.25C12.75 18.4489 12.671 18.6397 12.5303 18.7803C12.3897 18.921 12.1989 19 12 19C11.8011 19 11.6103 18.921 11.4697 18.7803C11.329 18.6397 11.25 18.4489 11.25 18.25V12.75C11.25 12.34 11.59 12 12 12ZM16 14.75C16 14.5511 15.921 14.3603 15.7803 14.2197C15.6397 14.079 15.4489 14 15.25 14C15.0511 14 14.8603 14.079 14.7197 14.2197C14.579 14.3603 14.5 14.5511 14.5 14.75V18.25C14.5 18.4489 14.579 18.6397 14.7197 18.7803C14.8603 18.921 15.0511 19 15.25 19C15.4489 19 15.6397 18.921 15.7803 18.7803C15.921 18.6397 16 18.4489 16 18.25V14.75ZM13.59 2.58999L19.4 8.39999C19.5902 8.5864 19.7412 8.80891 19.8442 9.05447C19.9473 9.30003 20.0002 9.56369 20 9.82999V20C20 20.5304 19.7893 21.0391 19.4142 21.4142C19.0391 21.7893 18.5304 22 18 22H6C5.46957 22 4.96086 21.7893 4.58579 21.4142C4.21071 21.0391 4 20.5304 4 20V3.99999C4 2.89999 4.9 1.99999 6 1.99999H12.17C12.1966 1.99821 12.2234 1.99821 12.25 1.99999L12.31 2.00999C12.53 2.02999 12.74 2.06999 12.94 2.14999L13.1 2.23999C13.12 2.23999 13.14 2.25999 13.15 2.26999L13.2 2.28999L13.28 2.33999C13.3877 2.41369 13.4881 2.49739 13.58 2.58999H13.59ZM18 20.5C18.1326 20.5 18.2598 20.4473 18.3536 20.3535C18.4473 20.2598 18.5 20.1326 18.5 20V9.99999H14C13.4696 9.99999 12.9609 9.78928 12.5858 9.41421C12.2107 9.03913 12 8.53043 12 7.99999V3.49999H6C5.86739 3.49999 5.74021 3.55267 5.64645 3.64644C5.55268 3.74021 5.5 3.86738 5.5 3.99999V20C5.5 20.27 5.72 20.5 6 20.5H18ZM17.38 8.49999L13.5 4.61999V7.99999C13.5 8.27999 13.72 8.49999 14 8.49999H17.38Z" fill="white"/>
</svg>
