<svg width="24" height="24" viewBox="0 0 24 24" fill="none" xmlns="http://www.w3.org/2000/svg">
<path d="M10.0001 2.75C11.3704 2.74968 12.7127 3.13769 13.8714 3.86906C15.0302 4.60044 15.958 5.64523 16.5472 6.88234C17.1365 8.11945 17.3631 9.49822 17.2008 10.8588C17.0384 12.2195 16.4938 13.5062 15.6301 14.57L20.5301 19.47C20.6633 19.6043 20.7408 19.784 20.7471 19.9731C20.7534 20.1621 20.6881 20.3466 20.5641 20.4895C20.4402 20.6324 20.2668 20.7232 20.0788 20.7437C19.8907 20.7642 19.7019 20.7128 19.5501 20.6L19.4701 20.53L14.5701 15.63C13.669 16.3611 12.6056 16.8652 11.4692 17.1C10.3329 17.3348 9.15675 17.2934 8.0397 16.9793C6.92266 16.6652 5.89732 16.0876 5.04985 15.295C4.20239 14.5024 3.55756 13.5179 3.16954 12.4243C2.78153 11.3307 2.66167 10.16 2.82004 9.01051C2.97841 7.861 3.41038 6.7663 4.07965 5.81839C4.74892 4.87048 5.63593 4.09706 6.66616 3.56313C7.69638 3.02919 8.83972 2.75034 10.0001 2.75ZM10.0001 4.25C9.24499 4.25 8.49728 4.39873 7.79966 4.68769C7.10203 4.97666 6.46816 5.4002 5.93422 5.93414C5.40029 6.46807 4.97674 7.10195 4.68778 7.79957C4.39881 8.49719 4.25009 9.2449 4.25009 10C4.25009 10.7551 4.39881 11.5028 4.68778 12.2004C4.97674 12.8981 5.40029 13.5319 5.93422 14.0659C6.46816 14.5998 7.10203 15.0233 7.79966 15.3123C8.49728 15.6013 9.24499 15.75 10.0001 15.75C11.5251 15.75 12.9876 15.1442 14.0659 14.0659C15.1443 12.9875 15.7501 11.525 15.7501 10C15.7501 8.47501 15.1443 7.01247 14.0659 5.93414C12.9876 4.8558 11.5251 4.25 10.0001 4.25Z" fill="#020F1F"/>
</svg>
