<svg width="24" height="24" viewBox="0 0 24 24" fill="none" xmlns="http://www.w3.org/2000/svg">
<path d="M10.7907 3.09998C11.2907 2.09998 12.7107 2.09998 13.2107 3.09998L15.5707 7.87998L20.8407 8.64998C21.9407 8.80998 22.3907 10.17 21.5907 10.95L17.7707 14.67L18.6707 19.92C18.7127 20.1682 18.6845 20.4232 18.5893 20.6562C18.4941 20.8892 18.3356 21.091 18.1317 21.2387C17.9278 21.3864 17.6867 21.4741 17.4356 21.492C17.1845 21.5099 16.9334 21.4573 16.7107 21.34L12.0007 18.86L7.28069 21.34C7.05795 21.4573 6.80684 21.5099 6.55574 21.492C6.30464 21.4741 6.06355 21.3864 5.85969 21.2387C5.65583 21.091 5.49733 20.8892 5.40209 20.6562C5.30684 20.4232 5.27865 20.1682 5.32069 19.92L6.22069 14.67L2.41069 10.95C1.61069 10.17 2.05069 8.80998 3.16069 8.64998L8.43069 7.87998L10.7907 3.09998Z" fill="#0AB175"/>
</svg>
