<svg width="24" height="24" viewBox="0 0 24 24" fill="none" xmlns="http://www.w3.org/2000/svg">
<path d="M4.53009 12.97C4.38792 12.8375 4.19987 12.7654 4.00557 12.7688C3.81127 12.7722 3.62588 12.8509 3.48847 12.9883C3.35106 13.1258 3.27234 13.3111 3.26892 13.5054C3.26549 13.6997 3.33761 13.8878 3.47009 14.03L7.97009 18.53C8.27009 18.83 8.74009 18.83 9.03009 18.53L20.0301 7.52997C20.1626 7.38779 20.2347 7.19975 20.2313 7.00545C20.2278 6.81114 20.1491 6.62576 20.0117 6.48835C19.8743 6.35093 19.6889 6.27222 19.4946 6.26879C19.3003 6.26537 19.1123 6.33749 18.9701 6.46997L8.50009 16.94L4.53009 12.97Z" fill="#0AB175"/>
</svg>
