<svg width="24" height="24" viewBox="0 0 24 24" fill="none" xmlns="http://www.w3.org/2000/svg">
<path d="M4 6.00004C4 5.30004 4.32 4.70004 4.77 4.22004C5.28646 3.70705 5.89783 3.29947 6.57 3.02004C8.29155 2.31346 10.1394 1.96635 12 2.00004C14.08 2.00004 16 2.38004 17.43 3.02004C18.15 3.34004 18.77 3.74004 19.23 4.22004C19.68 4.71004 20 5.31004 20 6.00004V18C20 18.7 19.68 19.3 19.23 19.78C18.77 20.26 18.15 20.66 17.43 20.98C15.7085 21.6866 13.8606 22.0337 12 22C9.92 22 8 21.62 6.57 20.98C5.89783 20.7006 5.28646 20.293 4.77 19.78C4.29337 19.3082 4.01749 18.6705 4 18V6.00004ZM5.5 6.00004C5.5 6.20004 5.59 6.46004 5.87 6.75004C6.14 7.05004 6.58 7.35004 7.18 7.61004C8.38 8.15004 10.08 8.50004 12 8.50004C13.92 8.50004 15.62 8.15004 16.82 7.61004C17.42 7.35004 17.86 7.05004 18.13 6.75004C18.41 6.45004 18.5 6.21004 18.5 6.00004C18.5 5.80004 18.41 5.54004 18.13 5.25004C17.86 4.95004 17.42 4.65004 16.82 4.39004C15.62 3.85004 13.92 3.50004 12 3.50004C10.08 3.50004 8.38 3.85004 7.18 4.39004C6.58 4.65004 6.14 4.95004 5.87 5.25004C5.59 5.55004 5.5 5.79004 5.5 6.00004ZM18.5 8.40004C18.1614 8.62497 17.8033 8.81908 17.43 8.98004C15.7085 9.68662 13.8606 10.0337 12 10C9.92 10 8 9.62004 6.57 8.98004C6.19671 8.81908 5.83861 8.62497 5.5 8.40004V18C5.5 18.2 5.59 18.46 5.87 18.75C6.14 19.05 6.58 19.35 7.18 19.61C8.38 20.15 10.08 20.5 12 20.5C13.92 20.5 15.62 20.15 16.82 19.61C17.42 19.35 17.86 19.05 18.13 18.75C18.41 18.45 18.5 18.21 18.5 18V8.40004Z" fill="white"/>
</svg>
