<svg width="24" height="24" viewBox="0 0 24 24" fill="none" xmlns="http://www.w3.org/2000/svg">
<path d="M4.39996 4.55003L4.46996 4.47003C4.59756 4.34241 4.7669 4.26508 4.9469 4.25222C5.12691 4.23936 5.30552 4.29184 5.44996 4.40003L5.52996 4.47003L12 10.94L18.47 4.47003C18.5386 4.39634 18.6214 4.33724 18.7134 4.29625C18.8054 4.25526 18.9047 4.23322 19.0054 4.23144C19.1061 4.22966 19.2062 4.24819 19.2996 4.28591C19.3929 4.32363 19.4778 4.37977 19.549 4.45099C19.6202 4.52221 19.6764 4.60705 19.7141 4.70043C19.7518 4.79382 19.7703 4.89385 19.7686 4.99455C19.7668 5.09526 19.7447 5.19457 19.7037 5.28657C19.6628 5.37857 19.6037 5.46137 19.53 5.53003L13.06 12L19.53 18.47C19.8 18.74 19.83 19.15 19.6 19.45L19.53 19.53C19.4024 19.6577 19.233 19.735 19.053 19.7478C18.873 19.7607 18.6944 19.7082 18.55 19.6L18.47 19.53L12 13.06L5.52996 19.53C5.38779 19.6625 5.19974 19.7346 5.00544 19.7312C4.81114 19.7278 4.62575 19.6491 4.48834 19.5117C4.35093 19.3742 4.27222 19.1889 4.26879 18.9946C4.26536 18.8003 4.33748 18.6122 4.46996 18.47L10.94 12L4.46996 5.53003C4.34234 5.40243 4.26501 5.2331 4.25215 5.05309C4.23929 4.87308 4.29177 4.69447 4.39996 4.55003Z" fill="#CD0909"/>
</svg>
