<svg width="24" height="24" viewBox="0 0 24 24" fill="none" xmlns="http://www.w3.org/2000/svg">
<path d="M15.9001 3.04995C16.225 2.68727 16.6206 2.3947 17.0624 2.19013C17.5043 1.98556 17.9833 1.87329 18.4701 1.86018C18.9569 1.84708 19.4412 1.93342 19.8935 2.11392C20.3457 2.29442 20.7564 2.56528 21.1004 2.90995C21.4444 3.25461 21.7144 3.66583 21.894 4.11845C22.0736 4.57106 22.159 5.05556 22.1449 5.54231C22.1309 6.02905 22.0177 6.50781 21.8122 6.9493C21.6068 7.39079 21.3134 7.78572 20.9501 8.10995L20.0601 9.00995L15.0001 3.92995L15.9001 3.02995V3.04995ZM13.9301 4.99995L3.9301 14.9999C3.5301 15.3999 3.2301 15.9199 3.1101 16.4799L2.0101 21.0799C1.98134 21.204 1.98464 21.3333 2.01968 21.4557C2.05472 21.5781 2.12036 21.6896 2.21039 21.7797C2.30043 21.8697 2.41191 21.9353 2.53432 21.9704C2.65674 22.0054 2.78606 22.0087 2.9101 21.9799L7.5101 20.8799C8.0724 20.7537 8.58838 20.4732 9.0001 20.0699L19.0001 10.0699L13.9401 4.99995H13.9301Z" fill="#F1B314"/>
</svg>
